<?xml version="1.0" encoding="UTF-8" standalone="no"?>
<!-- Created with Inkscape (http://www.inkscape.org/) -->

<svg
   xmlns:svg="http://www.w3.org/2000/svg"
   xmlns="http://www.w3.org/2000/svg"
   version="1.1"
   width="16"
   height="16.000408"
   viewBox="-1 0 16 16.000408"
   id="svg2"
   xml:space="preserve">
<defs>
<style type="text/css"><![CDATA[
	path {
		fill: #ff0000;
		stroke: black;
		stroke-width: 0.3
	}
]]>
</style>

</defs>




<path
   d="M 1.8129828,6.4325281 2.6337712,5.6513856 2.193748,6.743217 1.8129828,6.4325281 M 4.5967616,7.3543296 5.0672059,9.9483817 4.1359078,9.0968257 4.5967616,7.3543296 z M 2.3640499,15.336066 H 1.3227672 L 1.5427366,8.3354733 1.7830117,7.7345605 0.54136215,6.5227321 C 1.5663797,5.4881335 2.5907785,4.4534412 3.615093,3.4183176 4.134061,3.8784684 4.6863562,3.9794908 5.2578041,3.8787309 L 5.9990289,10.71941 c 1.0443578,0.881096 2.0888936,1.762276 3.1341231,2.643907 -0.7609118,-1.397524 -0.4162769,-2.914688 0.910992,-2.513879 l 3.414494,1.031692 -3.4748015,3.465221 H 6.3086679 L 7.6710175,12.692075 4.2062466,9.7874922 4.8169091,11.530879 4.706662,15.335982 H 3.8756738 L 3.7358024,12.121499 2.8648122,10.548761 2.3640499,15.336066 z M 4.8523364,0.65405705 c 0.7965265,0 1.4463099,0.65005525 1.4463099,1.44691925 0,0.7972296 -0.6498771,1.4474536 -1.4463099,1.4474536 -0.7970422,0 -1.4474537,-0.650224 -1.4474537,-1.4474536 0,-0.7969578 0.6504115,-1.44691925 1.4474537,-1.44691925 z"
/>
</svg>