<?xml version="1.0" encoding="UTF-8" standalone="no"?>
<!-- Created with Inkscape (http://www.inkscape.org/) -->

<svg
   xmlns:svg="http://www.w3.org/2000/svg"
   xmlns="http://www.w3.org/2000/svg"
   version="1.1"
   width="16"
   height="16"
   id="svg2387">
  <defs>
	<style type="text/css"><![CDATA[
		#diamond {
			fill:yellow;
		}
		rect {
			stroke:black;
		}
		]]>
	</style>
  </defs>
  <rect
     width="10.566414"
     height="10.566802"
     rx="0.4"
     ry="0.4"
     x="6.0305018"
     y="-5.2834015"
     transform="matrix(0.70710678,0.70710678,-0.70710678,0.70710678,0,0)"
     id="diamond"
     style="stroke-width:0.1" />
  <rect
     width="10.086651"
     height="10.087021"
     rx="0.4"
     ry="0.4"
     x="6.2703834"
     y="-5.0435104"
     transform="matrix(0.70710678,0.70710678,-0.70710678,0.70710678,0,0)"
     id="innerDiamond"
     style="fill:none;stroke-width:0.242" />
    <path
       d="M 7.5605469,9.1894531 6.8398437,5 C 6.828124,4.9296946 6.8222646,4.8593821 6.8222656,4.7890625 6.8222646,4.1875078 7.2148424,3.8867269 8,3.8867188 8.7851533,3.8867269 9.177731,4.1855547 9.1777344,4.7832031 9.177731,4.8652415 9.1718717,4.9375071 9.1601563,5 L 8.4394531,9.1894531 z M 8,10.050781 c 0.6874971,2e-6 1.0312468,0.343752 1.03125,1.03125 -3.2e-6,0.6875 -0.3437529,1.03125 -1.03125,1.03125 -0.6875015,0 -1.0312511,-0.34375 -1.03125,-1.03125 C 6.9687489,10.394533 7.3124985,10.050783 8,10.050781 z"
       id="exclamationPoint" />
</svg>
