<?xml version="1.0" encoding="utf-8"?>
<!-- Generator: Adobe Illustrator 12.0.1, SVG Export Plug-In  -->
<!DOCTYPE svg PUBLIC "-//W3C//DTD SVG 1.1//EN" "http://www.w3.org/Graphics/SVG/1.1/DTD/svg11.dtd" [
	<!ENTITY ns_flows "http://ns.adobe.com/Flows/1.0/">
	<!ENTITY ns_svg "http://www.w3.org/2000/svg">
	<!ENTITY ns_xlink "http://www.w3.org/1999/xlink">
]>
<svg  version="1.1" xmlns="&ns_svg;" xmlns:xlink="&ns_xlink;" xmlns:a="http://ns.adobe.com/AdobeSVGViewerExtensions/3.0/"
	 width="290" height="289" viewBox="-1 0 290 289" enable-background="new -1 0 290 289" xml:space="preserve">
<defs>
	<style type="text/css"><![CDATA[
		.background {
			fill: #FFFF00
		}
	]]></style>
</defs>
<path class="background" d="M136.328,284.065L3.991,151.703c-4.228-4.229-4.228-11.123,0-15.35L136.321,3.999
	c4.229-4.233,11.127-4.237,15.354-0.007L284.007,136.36c4.229,4.23,4.229,11.118,0,15.346L151.676,284.065
	C147.499,288.236,140.505,288.242,136.328,284.065"/>
<path d="M144.002,0c-3.128,0-6.061,1.216-8.261,3.418L3.41,135.772C1.209,137.97,0,140.901,0,144.026
	c-0.003,3.125,1.209,6.057,3.41,8.257l132.337,132.363l1.162-1.162L4.572,151.122c-1.89-1.89-2.933-4.411-2.929-7.096
	c0-2.686,1.04-5.202,2.929-7.092L136.902,4.58c1.89-1.893,4.412-2.937,7.1-2.937c2.686,0,5.204,1.041,7.094,2.931l132.33,132.367
	c1.89,1.89,2.93,4.41,2.93,7.095c0,2.683-1.04,5.2-2.93,7.09l-132.33,132.359c-3.847,3.841-10.344,3.844-14.187,0l-1.162,1.162
	c4.472,4.472,12.031,4.472,16.51,0l132.33-132.359c4.553-4.55,4.55-11.957,0-16.508L152.257,3.412
	C150.056,1.209,147.127,0,144.002,0z"/>
<path fill-rule="evenodd" clip-rule="evenodd" d="M138.432,281.909L6.147,149.599c-3.042-3.048-3.035-8.091,0-11.141L138.426,6.155
	c3.048-3.048,8.085-3.042,11.146,0l132.273,132.31c3.041,3.049,3.048,8.083,0,11.134L149.571,281.909
	C146.518,284.938,141.48,284.951,138.432,281.909"/>
<path fill-rule="evenodd" clip-rule="evenodd" class="background" d="M141.377,278.888L9.169,146.653c-1.463-1.418-1.463-3.831,0-5.252
	L141.377,9.177c1.412-1.463,3.825-1.463,5.243,0l132.209,132.225c1.463,1.424,1.463,3.837-0.007,5.258L146.627,278.888
	C145.209,280.351,142.795,280.351,141.377,278.888"/>
<path fill-rule="evenodd" clip-rule="evenodd" d="M84.991,113.41l9.336-8.885l-5.005,12.419L84.991,113.41 M116.655,123.895
	l5.351,29.506l-10.593-9.686L116.655,123.895z M91.259,214.683H79.415l2.502-79.628l2.733-6.835l-14.123-13.784
	c11.659-11.768,23.311-23.537,34.962-35.311c5.903,5.234,12.185,6.383,18.685,5.237l8.431,77.809
	c11.879,10.022,23.76,20.045,35.649,30.073c-8.655-15.896-4.735-33.153,10.362-28.594l38.838,11.735l-39.524,39.415h-41.803
	l15.496-30.191l-39.41-33.038l6.946,19.83l-1.254,43.281h-9.452l-1.591-36.563l-9.907-17.889L91.259,214.683z M119.562,47.683
	c9.06,0,16.451,7.394,16.451,16.458c0,9.068-7.392,16.464-16.451,16.464c-9.066,0-16.464-7.396-16.464-16.464
	C103.098,55.076,110.496,47.683,119.562,47.683z"/>
</svg>
