<?xml version="1.0" encoding="UTF-8" standalone="no"?>
<!-- Created with Inkscape (http://www.inkscape.org/) -->

<svg
   xmlns:svg="http://www.w3.org/2000/svg"
   xmlns="http://www.w3.org/2000/svg"
   version="1.1"
   width="290"
   height="289"
   viewBox="-1 0 290 289"
   id="svg2"
   xml:space="preserve">
<defs
   id="defs3">
	<style type="text/css">
		#flagger {
			fill:black;
			stroke:none;
		}
		#bg, #innerBg {
			fill:red;
		}
	</style>
</defs>
<path
   d="M 136.328,284.065 3.991,151.703 c -4.228,-4.229 -4.228,-11.123 0,-15.35 L 136.321,3.999 c 4.229,-4.233 11.127,-4.237 15.354,-0.007 L 284.007,136.36 c 4.229,4.23 4.229,11.118 0,15.346 L 151.676,284.065 c -4.177,4.171 -11.171,4.177 -15.348,0"
   id="bg" />
<path
   d="m 144.002,0 c -3.128,0 -6.061,1.216 -8.261,3.418 L 3.41,135.772 C 1.209,137.97 0,140.901 0,144.026 c -0.003,3.125 1.209,6.057 3.41,8.257 l 132.337,132.363 1.162,-1.162 L 4.572,151.122 c -1.89,-1.89 -2.933,-4.411 -2.929,-7.096 0,-2.686 1.04,-5.202 2.929,-7.092 L 136.902,4.58 c 1.89,-1.893 4.412,-2.937 7.1,-2.937 2.686,0 5.204,1.041 7.094,2.931 l 132.33,132.367 c 1.89,1.89 2.93,4.41 2.93,7.095 0,2.683 -1.04,5.2 -2.93,7.09 l -132.33,132.359 c -3.847,3.841 -10.344,3.844 -14.187,0 l -1.162,1.162 c 4.472,4.472 12.031,4.472 16.51,0 l 132.33,-132.359 c 4.553,-4.55 4.55,-11.957 0,-16.508 L 152.257,3.412 C 150.056,1.209 147.127,0 144.002,0 z"
   id="outline" />
 <path
   d="M 138.432,281.909 6.147,149.599 c -3.042,-3.048 -3.035,-8.091 0,-11.141 L 138.426,6.155 c 3.048,-3.048 8.085,-3.042 11.146,0 l 132.273,132.31 c 3.041,3.049 3.048,8.083 0,11.134 l -132.274,132.31 c -3.053,3.029 -8.091,3.042 -11.139,0"
   id="innerLine"
   style="fill-rule:evenodd" />
<path
   d="M 141.377,278.888 9.169,146.653 c -1.463,-1.418 -1.463,-3.831 0,-5.252 L 141.377,9.177 c 1.412,-1.463 3.825,-1.463 5.243,0 l 132.209,132.225 c 1.463,1.424 1.463,3.837 -0.007,5.258 L 146.627,278.888 c -1.418,1.463 -3.832,1.463 -5.25,0"
   id="innerBg" />

 <g
   id="flagger"><path
     d="m 54.635151,100.1969 36.452684,0 c 0.349471,0 0.630211,0.28093 0.630211,0.63021 l 0,44.65119 c 0,0.34886 -0.280923,0.63021 -0.630211,0.63021 l -36.452684,0 c -0.34886,0 -0.63015,-0.28092 -0.63015,-0.63021 l 0,-44.65119 c 0,-0.34886 0.280923,-0.63021 0.63015,-0.63021 z"
     id="flag" /><path
     d="m 94.074229,99.103817 91.823171,0.54654 23.50235,9.291653 12.02445,-15.303855 6.5588,4.919102 -14.7573,23.502353 -32.794,-10.93135 c 0,0 -0.62307,35.45059 0,53.15945 0.82036,23.31593 4.91909,69.81801 4.91909,69.81801 l -8.74504,0 -13.26927,-58.03146 -13.51248,58.03146 -7.10536,0 c 0,0 1.86453,-46.53985 1.64887,-69.81801 -0.16092,-17.37009 -2.19541,-52.06623 -2.19541,-52.06623 l -48.09781,-5.46571 0,-7.651893 -6.1e-5,-6e-5 z"
     id="body" /><path
     d="m 176.32802,75.001394 a 16.508766,16.508766 0 1 1 -0.0605,-1.412792"
     id="head"/>
 </g>
</svg>